<svg xmlns="http://www.w3.org/2000/svg" width="397" height="412" fill="none"><path fill="#CC0854" d="M80.32 193.342c.722-1.951 3.481-1.951 4.203 0l2.08 5.621a2.24 2.24 0 0 0 1.324 1.323l5.62 2.08c1.951.722 1.951 3.481 0 4.203l-5.62 2.08a2.24 2.24 0 0 0-1.324 1.324l-2.08 5.62c-.722 1.951-3.48 1.951-4.203 0l-2.08-5.62a2.24 2.24 0 0 0-1.323-1.324l-5.621-2.08c-1.95-.722-1.95-3.481 0-4.203l5.62-2.08a2.24 2.24 0 0 0 1.325-1.323l2.08-5.621Zm235.262 0c.722-1.951 3.481-1.951 4.203 0l2.08 5.621a2.24 2.24 0 0 0 1.323 1.323l5.621 2.08c1.951.722 1.951 3.481 0 4.203l-5.621 2.08a2.239 2.239 0 0 0-1.323 1.324l-2.08 5.62c-.722 1.951-3.481 1.951-4.203 0l-2.08-5.62a2.238 2.238 0 0 0-1.324-1.324l-5.62-2.08c-1.951-.722-1.951-3.481 0-4.203l5.62-2.08a2.239 2.239 0 0 0 1.324-1.323l2.08-5.621ZM94.894 157.494c-.526 1.002-1.18 1.822-1.959 2.46-.786.617-1.644.982-2.575 1.097-.944.107-1.928-.1-2.95-.62l1.218-2.316c.841.425 1.666.495 2.474.209.793-.293 1.431-.899 1.914-1.817.417-.793.57-1.539.457-2.237-.118-.72-.519-1.259-1.2-1.618-.418-.219-.795-.329-1.133-.329-.351-.007-.715.095-1.092.305-.37.196-.78.504-1.232.924-.466.412-1.021.928-1.667 1.548-.73.681-1.42 1.198-2.067 1.55-.654.331-1.293.501-1.92.509-.64.001-1.272-.163-1.898-.492-.89-.469-1.525-1.069-1.904-1.801a4.464 4.464 0 0 1-.466-2.456c.06-.892.32-1.776.782-2.653.468-.89 1.049-1.606 1.742-2.147a4.402 4.402 0 0 1 2.309-.997c.846-.123 1.718.042 2.616.497l-1.24 2.358a2.357 2.357 0 0 0-1.98-.136c-.673.233-1.21.731-1.613 1.497-.358.646-.484 1.29-.377 1.933.106.642.493 1.138 1.161 1.489.473.249.925.318 1.356.207.432-.11.897-.371 1.398-.783a40.93 40.93 0 0 0 1.794-1.587c.438-.427.896-.826 1.375-1.196a6.114 6.114 0 0 1 1.537-.896 3.808 3.808 0 0 1 1.672-.293c.597.012 1.237.198 1.919.556.89.468 1.528 1.097 1.912 1.885.378.767.533 1.621.465 2.562-.061.927-.337 1.856-.828 2.788Zm5.807-9.726c-.63.96-1.403 1.665-2.32 2.117a5.52 5.52 0 0 1-2.951.545c-1.043-.101-2.064-.48-3.063-1.135-1.038-.681-1.805-1.475-2.3-2.383a5.228 5.228 0 0 1-.649-2.879c.058-1.034.406-2.037 1.044-3.01.62-.946 1.374-1.636 2.26-2.07a5.17 5.17 0 0 1 2.762-.557c.978.058 1.92.385 2.826.98.184.121.338.231.46.33.132.086.281.203.448.35l-4.928 7.511a4.281 4.281 0 0 0 1.75.556 3.25 3.25 0 0 0 1.64-.306c.504-.252.928-.641 1.273-1.167.37-.565.56-1.127.57-1.685a2.813 2.813 0 0 0-.51-1.631l1.423-2.169a5.266 5.266 0 0 1 1.048 1.928c.227.713.287 1.467.18 2.262-.108.794-.429 1.598-.963 2.413Zm-7.876-1.19 3.556-5.422c-.78-.474-1.554-.597-2.324-.369-.783.22-1.416.698-1.9 1.434a3.472 3.472 0 0 0-.565 2.195c.054.806.465 1.526 1.233 2.162Zm11.039-4.024-13.212-9.893 1.498-2 13.212 9.892-1.498 2.001Zm5.935-6.707c-.738.858-1.589 1.474-2.553 1.847a5.625 5.625 0 0 1-3.026.227c-1.041-.212-2.039-.728-2.992-1.548-.953-.82-1.6-1.73-1.944-2.73a5.622 5.622 0 0 1-.16-3.031c.224-1.031.705-1.975 1.443-2.833.738-.858 1.589-1.474 2.553-1.847a5.63 5.63 0 0 1 3.021-.294c1.05.178 2.057.682 3.023 1.512.905.78 1.535 1.674 1.89 2.684.364.998.447 2.023.247 3.075-.212 1.041-.712 2.021-1.502 2.938Zm-1.629-1.433c.451-.524.72-1.101.807-1.732a3.64 3.64 0 0 0-.227-1.906c-.26-.638-.681-1.208-1.265-1.711-.596-.512-1.217-.839-1.863-.98-.647-.163-1.265-.145-1.851.055-.599.19-1.129.553-1.591 1.089-.482.56-.766 1.156-.852 1.786-.076.619.02 1.231.288 1.835.266.582.686 1.119 1.258 1.611.655.564 1.312.921 1.97 1.072.668.14 1.289.104 1.864-.106a3.468 3.468 0 0 0 1.462-1.013Zm14.518-11.105c-1.197 1.018-2.473 1.629-3.827 1.833-1.343.193-2.672.013-3.988-.539-1.316-.552-2.514-1.462-3.594-2.731-1.049-1.233-1.752-2.544-2.109-3.933a7.289 7.289 0 0 1 .099-4.14c.445-1.37 1.326-2.615 2.643-3.735 1.448-1.233 2.941-1.905 4.477-2.015 1.549-.121 2.986.307 4.313 1.284l-2.155 1.833a3.507 3.507 0 0 0-2.476-.617c-.899.084-1.791.503-2.677 1.257-.91.774-1.509 1.634-1.797 2.581-.288.947-.288 1.917 0 2.911.288.993.84 1.969 1.655 2.926.804.946 1.674 1.64 2.608 2.084.935.443 1.876.602 2.822.478.949-.147 1.842-.577 2.68-1.29 1.209-1.029 1.845-2.138 1.907-3.326.064-1.21-.322-2.44-1.158-3.689l-4.274 3.637-1.33-1.562 6.231-5.303 5.746 6.752-1.76 1.497-1.733-1.745c.14 1.037.045 2.005-.283 2.904-.329.899-1.002 1.782-2.02 2.648Zm6.23-5.542-9.178-13.718 2.077-1.39 3.606 5.389a3.774 3.774 0 0 1 .572-2.113 4.975 4.975 0 0 1 1.553-1.664c1.124-.752 2.272-1 3.445-.745 1.178.234 2.239 1.056 3.183 2.467l3.815 5.703-2.057 1.376-3.646-5.447c-.585-.876-1.231-1.418-1.938-1.626-.715-.221-1.458-.073-2.229.442-.784.525-1.239 1.217-1.364 2.076-.12.837.13 1.719.75 2.647l3.488 5.213-2.077 1.39Zm14.542-8.614c-.998.533-2.014.799-3.048.798a5.621 5.621 0 0 1-2.903-.884c-.894-.574-1.637-1.416-2.229-2.525-.592-1.11-.867-2.193-.824-3.249a5.617 5.617 0 0 1 .947-2.883c.581-.88 1.371-1.587 2.37-2.12.999-.532 2.015-.798 3.049-.797a5.62 5.62 0 0 1 2.922.82c.915.545 1.671 1.38 2.271 2.503.562 1.054.826 2.116.79 3.186a5.695 5.695 0 0 1-.882 2.955c-.574.894-1.395 1.626-2.463 2.196Zm-1-1.925c.61-.326 1.07-.767 1.379-1.323a3.64 3.64 0 0 0 .478-1.859c-.011-.689-.198-1.373-.56-2.053-.37-.693-.831-1.222-1.382-1.588-.544-.386-1.127-.592-1.746-.618-.627-.04-1.252.107-1.877.44-.651.347-1.132.799-1.441 1.356a3.421 3.421 0 0 0-.395 1.814c.038.639.235 1.292.59 1.957.407.763.889 1.334 1.448 1.713.572.372 1.165.564 1.777.576a3.476 3.476 0 0 0 1.729-.415Zm11.011-2.839c-.84.354-1.669.533-2.486.537-.824-.011-1.569-.2-2.236-.567a3.934 3.934 0 0 1-1.576-1.613l2.325-.98a2.24 2.24 0 0 0 1.344.942c.576.15 1.189.088 1.841-.187.579-.245.998-.566 1.256-.965.252-.414.289-.831.112-1.251-.152-.362-.395-.592-.726-.691-.318-.105-.689-.136-1.115-.093-.41.037-.852.103-1.323.2-.733.122-1.446.192-2.137.21-.677.013-1.282-.107-1.816-.36-.533-.252-.943-.719-1.23-1.4-.281-.666-.349-1.311-.203-1.936.155-.645.488-1.23 1.001-1.753.513-.523 1.16-.95 1.942-1.28 1.173-.495 2.276-.61 3.309-.346 1.026.249 1.821.92 2.385 2.013l-2.216.935c-.272-.483-.654-.782-1.147-.898-.478-.123-1.007-.062-1.586.183-.536.226-.925.518-1.166.876-.248.343-.283.724-.106 1.144.123.29.342.488.66.593.311.09.675.124 1.092.102.425-.043.862-.1 1.311-.17a13.39 13.39 0 0 1 2.224-.247c.677-.013 1.278.118 1.803.391.525.273.95.776 1.276 1.509.281.666.34 1.332.178 1.998-.155.645-.492 1.24-1.014 1.784-.506.538-1.165.978-1.976 1.32Zm8.713-3.587c-1.099.383-2.038.41-2.818.083-.78-.328-1.382-1.1-1.806-2.318l-1.962-5.633-1.67.582-.69-1.982 1.67-.582-.931-2.672 2.36-.822.931 2.672 2.805-.977.691 1.982-2.806.977 1.962 5.633c.197.564.455.899.775 1.004.319.105.746.065 1.28-.122l1.247-.434.698 2.004-1.736.605Zm6.73-1.586c-.882.233-1.727.294-2.537.183-.814-.126-1.525-.418-2.134-.874-.609-.457-1.053-1.063-1.335-1.818l2.439-.645c.252.519.651.892 1.2 1.121.548.23 1.164.253 1.848.072.608-.16 1.068-.42 1.379-.78.308-.373.403-.78.286-1.221-.1-.38-.308-.642-.622-.787-.3-.148-.663-.231-1.09-.248a12.004 12.004 0 0 0-1.339.013 15.637 15.637 0 0 1-2.146-.091c-.672-.082-1.254-.286-1.747-.61-.492-.326-.833-.845-1.022-1.56-.185-.699-.161-1.347.071-1.945.243-.617.655-1.15 1.236-1.596.581-.446 1.282-.778 2.102-.995 1.231-.326 2.34-.286 3.325.12.981.39 1.675 1.167 2.079 2.328l-2.325.615c-.201-.516-.538-.866-1.009-1.05-.456-.188-.988-.201-1.596-.04-.563.148-.988.383-1.277.703-.294.305-.382.678-.265 1.12.08.303.27.53.569.678.296.133.652.217 1.068.254.427.017.867.022 1.321.016a13.4 13.4 0 0 1 2.237.066c.672.083 1.249.296 1.73.64.482.344.833.902 1.053 1.673.185.699.15 1.367-.104 2.003-.243.617-.661 1.159-1.253 1.624-.577.462-1.291.805-2.142 1.03Zm5.018-1.509-2.848-16.257 5.69-.998c1.146-.2 2.168-.196 3.066.014.899.21 1.643.63 2.232 1.26.602.613.994 1.438 1.176 2.475.182 1.038.095 1.955-.26 2.751-.356.796-.928 1.447-1.717 1.953-.776.487-1.722.828-2.837 1.023l-3.228.566 1.188 6.782-2.462.431Zm.908-9.303 3.182-.558c1.161-.203 1.941-.58 2.339-1.128.396-.564.522-1.256.378-2.077-.146-.836-.5-1.444-1.061-1.825-.564-.396-1.427-.492-2.588-.288l-3.182.557.932 5.319Zm13.587 7.494a5.248 5.248 0 0 1-2.1-.233 3.626 3.626 0 0 1-1.603-1.101c-.419-.503-.658-1.13-.719-1.882-.072-.893.09-1.624.486-2.192.41-.585.982-1.033 1.713-1.344a7.656 7.656 0 0 1 2.483-.602l2.961-.238c-.054-.674-.207-1.206-.459-1.596-.253-.405-.576-.686-.967-.844-.392-.174-.839-.24-1.341-.2-.658.053-1.225.256-1.701.61-.462.337-.729.84-.801 1.508l-2.515.202c.01-.853.234-1.596.672-2.23a4.849 4.849 0 0 1 1.794-1.517 6.43 6.43 0 0 1 2.407-.666c1.128-.091 2.077.045 2.847.409.785.347 1.388.874 1.807 1.582.435.706.691 1.529.767 2.469l.287 3.572c.052.453.173.783.363.988.205.189.543.28 1.016.273l.172 2.14c-.627.05-1.181.023-1.662-.08a2.834 2.834 0 0 1-1.179-.544 3.155 3.155 0 0 1-.796-1.071c-.326.657-.831 1.234-1.517 1.73-.685.497-1.49.783-2.415.857Zm.423-2.092c.643-.052 1.194-.254 1.655-.606a3.396 3.396 0 0 0 1.026-1.36c.223-.554.31-1.137.261-1.748l-.004-.047-2.773.223a4.968 4.968 0 0 0-1.279.269 2.063 2.063 0 0 0-.919.641c-.214.27-.304.632-.267 1.086.048.596.295 1.017.74 1.265.445.233.965.325 1.56.277Zm7.707 6.53 2.645-5.683-4.781-11.22 2.758.025 3.367 8.566 3.659-8.503 2.618.023-7.625 16.815-2.641-.023Zm19.134-3.584c-1.15-.172-2.104-.593-2.862-1.263a5.69 5.69 0 0 1-1.581-2.502c-.298-.982-.362-2.04-.192-3.175.168-1.12.537-2.097 1.107-2.934.589-.85 1.334-1.477 2.237-1.882.921-.419 1.957-.542 3.107-.37.855.129 1.606.424 2.252.886a4.379 4.379 0 0 1 1.482 1.724l.971-6.482 2.495.374-2.445 16.323-2.402-.36.176-1.81c-.464.55-1.075.968-1.832 1.252-.758.284-1.596.357-2.513.22Zm.815-2.095c.73.11 1.385.033 1.965-.23a3.356 3.356 0 0 0 1.422-1.217c.369-.55.608-1.189.717-1.92.126-.84.068-1.57-.172-2.195a3.345 3.345 0 0 0-1.083-1.521 3.47 3.47 0 0 0-1.703-.732 3.381 3.381 0 0 0-1.868.22 3.558 3.558 0 0 0-1.462 1.165c-.382.53-.632 1.192-.751 1.985-.116.778-.063 1.485.159 2.122a3.531 3.531 0 0 0 1.053 1.564c.48.406 1.054.659 1.723.76Zm11.564 4.597c-1.112-.284-2.03-.786-2.755-1.506a5.518 5.518 0 0 1-1.473-2.615c-.243-1.02-.217-2.108.079-3.265.307-1.203.809-2.186 1.507-2.95a5.229 5.229 0 0 1 2.512-1.548c.997-.281 2.058-.278 3.186.01 1.096.28 1.993.768 2.692 1.466a5.17 5.17 0 0 1 1.423 2.431c.262.944.259 1.94-.009 2.991a6.019 6.019 0 0 1-.163.543 4.103 4.103 0 0 1-.186.536l-8.704-2.221a4.293 4.293 0 0 0 .042 1.836c.15.557.424 1.04.822 1.45.403.395.908.67 1.518.826.654.167 1.247.164 1.778-.009a2.819 2.819 0 0 0 1.378-1.01l2.513.64a5.257 5.257 0 0 1-1.484 1.618c-.6.446-1.294.748-2.08.904-.786.156-1.651.114-2.596-.127Zm-1.431-7.836 6.283 1.604c.195-.892.06-1.664-.406-2.318-.462-.67-1.119-1.113-1.972-1.331a3.474 3.474 0 0 0-2.26.177c-.745.313-1.293.936-1.645 1.868Zm24.471 16.449-.895-2.102a8.37 8.37 0 0 1-2.61.165 8.645 8.645 0 0 1-2.681-.687c-1.084-.465-2.007-1.083-2.771-1.855a8.184 8.184 0 0 1-1.731-2.665 8.26 8.26 0 0 1-.545-3.158c.039-1.129.306-2.271.801-3.427.501-1.17 1.144-2.152 1.928-2.945.805-.8 1.696-1.403 2.672-1.805a7.9 7.9 0 0 1 3.115-.564c1.085.02 2.17.263 3.254.727 1.098.47 2.029 1.092 2.793 1.864a7.381 7.381 0 0 1 1.727 2.612c.397.991.576 2.05.536 3.18-.018 1.12-.281 2.273-.789 3.458-.414.968-.928 1.808-1.541 2.521a7.591 7.591 0 0 1-2.065 1.706l.904 2.08-2.102.895Zm-8.07-12.717c-.513 1.199-.725 2.331-.634 3.396.091 1.065.435 1.999 1.031 2.802.597.803 1.387 1.415 2.369 1.836a6.932 6.932 0 0 0 1.805.516 5.09 5.09 0 0 0 1.728-.08l-1.397-3.266 2.124-.886 1.307 3.176a6.103 6.103 0 0 0 1.195-1.232c.365-.494.693-1.08.984-1.759.526-1.228.744-2.375.653-3.44-.091-1.065-.438-1.991-1.041-2.78-.603-.788-1.402-1.396-2.399-1.823-.983-.42-1.971-.57-2.963-.449-.987.108-1.897.496-2.731 1.165-.834.669-1.511 1.61-2.031 2.824Zm13.745 15.841c-.832-.477-1.449-1.058-1.854-1.744a4.103 4.103 0 0 1-.521-2.311c.056-.856.35-1.747.883-2.674l3.428-5.971 2.147 1.233-3.264 5.684c-.516.9-.715 1.719-.596 2.459.133.747.602 1.351 1.406 1.813.832.477 1.643.58 2.433.309.798-.285 1.475-.911 2.03-1.879l3.123-5.439 2.168 1.244-5.824 10.142-2.085-1.197.828-1.537a4.12 4.12 0 0 1-2.142.51 4.632 4.632 0 0 1-2.16-.642Zm9.027 5.702a5.256 5.256 0 0 1-1.46-1.528 3.634 3.634 0 0 1-.521-1.873c.002-.655.221-1.289.658-1.905.519-.73 1.112-1.186 1.781-1.367.69-.185 1.415-.161 2.176.071a7.634 7.634 0 0 1 2.289 1.133l2.423 1.72c.391-.551.615-1.057.673-1.518.066-.473 0-.896-.199-1.268-.189-.385-.489-.723-.899-1.014-.538-.383-1.104-.591-1.696-.626-.57-.039-1.097.175-1.582.64l-2.057-1.46c.555-.647 1.204-1.073 1.948-1.278a4.846 4.846 0 0 1 2.349-.009c.81.19 1.567.535 2.272 1.035.923.655 1.563 1.37 1.919 2.143.379.771.502 1.561.369 2.373-.12.821-.453 1.616-.999 2.385l-2.075 2.922c-.251.381-.37.711-.356.991.036.276.236.563.603.861l-1.242 1.75c-.513-.364-.921-.74-1.223-1.128a2.846 2.846 0 0 1-.555-1.175c-.07-.416-.044-.86.079-1.332-.672.294-1.43.411-2.274.352-.845-.06-1.645-.358-2.401-.895Zm1.668-1.332c.526.374 1.078.573 1.657.599a3.393 3.393 0 0 0 1.66-.383 3.78 3.78 0 0 0 1.323-1.172l.028-.038-2.269-1.611a4.974 4.974 0 0 0-1.153-.616 2.048 2.048 0 0 0-1.116-.098c-.338.068-.638.288-.902.66-.346.487-.428.969-.246 1.445.192.464.531.869 1.018 1.214Zm4.82 5.678 10.421-12.799 1.938 1.578-10.421 12.799-1.938-1.578Zm12.974-7.048a1.65 1.65 0 0 1-.582-1.129 1.682 1.682 0 0 1 .432-1.218 1.57 1.57 0 0 1 1.113-.563c.456-.021.856.118 1.2.416.356.309.55.686.581 1.129a1.53 1.53 0 0 1-.383 1.197 1.637 1.637 0 0 1-1.162.584c-.443.031-.843-.107-1.199-.416Zm-9.954 9.563 7.665-8.833 1.888 1.638-7.665 8.833-1.888-1.638Zm6.115 6.265c-.823-.823-1.339-1.729-1.55-2.718a5.685 5.685 0 0 1 .218-2.951c.344-.967.923-1.856 1.734-2.667.801-.8 1.679-1.367 2.635-1.7a5.346 5.346 0 0 1 2.918-.182c.989.211 1.895.728 2.717 1.551.611.612 1.039 1.295 1.283 2.051.256.745.311 1.501.166 2.268l4.637-4.634 1.783 1.785-11.674 11.667-1.717-1.718 1.217-1.35c-.7.167-1.439.139-2.217-.084-.778-.223-1.495-.662-2.15-1.318Zm1.901-1.2c.522.523 1.094.851 1.717.985a3.365 3.365 0 0 0 1.867-.133c.623-.222 1.195-.595 1.718-1.117.6-.6.989-1.222 1.167-1.867a3.335 3.335 0 0 0 .034-1.867 3.463 3.463 0 0 0-.933-1.601 3.386 3.386 0 0 0-1.634-.934 3.556 3.556 0 0 0-1.867.066c-.622.2-1.217.583-1.784 1.15-.556.555-.934 1.156-1.135 1.8a3.528 3.528 0 0 0-.084 1.884c.145.612.456 1.156.934 1.634Zm5.516 9.281a5.254 5.254 0 0 1-1.002-1.86 3.629 3.629 0 0 1-.006-1.945c.175-.63.555-1.184 1.139-1.661.694-.567 1.387-.849 2.079-.847.715.005 1.408.22 2.08.645.695.428 1.33.994 1.907 1.7l1.88 2.301c.524-.428.874-.856 1.051-1.285.19-.439.238-.865.145-1.276-.08-.422-.28-.827-.598-1.217-.418-.511-.907-.862-1.469-1.052-.54-.189-1.105-.123-1.696.198l-1.596-1.954c.707-.476 1.446-.714 2.217-.715a4.84 4.84 0 0 1 2.267.613c.731.398 1.37.931 1.917 1.601.716.876 1.144 1.735 1.282 2.575.161.843.07 1.638-.273 2.386-.333.759-.865 1.438-1.595 2.034l-2.776 2.268c-.343.301-.545.588-.606.861-.039.275.079.606.353.991l-1.661 1.357c-.398-.487-.692-.957-.88-1.412a2.839 2.839 0 0 1-.224-1.279c.043-.42.186-.842.429-1.264-.726.106-1.488.018-2.286-.264-.798-.281-1.491-.781-2.078-1.499Zm1.962-.841c.408.499.887.837 1.439 1.016a3.39 3.39 0 0 0 1.702.07 3.806 3.806 0 0 0 1.587-.778l.036-.03-1.76-2.155a4.951 4.951 0 0 0-.949-.899 2.058 2.058 0 0 0-1.05-.391c-.344-.023-.692.109-1.045.398-.463.378-.669.82-.62 1.328.062.498.282.978.66 1.441Zm5.413 10.843c-.641-.97-.966-1.962-.974-2.973a5.69 5.69 0 0 1 .804-2.848c.532-.878 1.276-1.633 2.234-2.265.944-.624 1.918-1.003 2.922-1.138 1.025-.13 1.99.005 2.895.406.927.405 1.711 1.093 2.351 2.064.477.721.759 1.477.847 2.267.101.78.004 1.532-.292 2.254l5.471-3.611 1.39 2.106-13.775 9.092-1.338-2.026 1.463-1.079c-.719.023-1.438-.153-2.156-.527-.717-.374-1.332-.948-1.842-1.722Zm2.102-.794c.407.616.902 1.052 1.486 1.308a3.362 3.362 0 0 0 1.856.244c.654-.093 1.29-.343 1.906-.75.709-.468 1.215-1 1.518-1.595a3.34 3.34 0 0 0 .407-1.823 3.47 3.47 0 0 0-.593-1.755 3.383 3.383 0 0 0-1.414-1.243 3.563 3.563 0 0 0-1.842-.309c-.65.071-1.31.327-1.979.769-.656.433-1.147.945-1.472 1.537a3.522 3.522 0 0 0-.459 1.829c.018.627.214 1.223.586 1.788Zm4.338 11.686c-.535-1.016-.778-2.034-.729-3.054a5.517 5.517 0 0 1 .952-2.847c.594-.863 1.419-1.573 2.476-2.13 1.099-.579 2.165-.865 3.199-.859a5.24 5.24 0 0 1 2.833.826c.877.551 1.586 1.342 2.128 2.371.527 1.001.766 1.995.717 2.98a5.166 5.166 0 0 1-.85 2.686c-.524.827-1.266 1.493-2.226 1.999a5.919 5.919 0 0 1-.511.242c-.14.074-.314.148-.523.222l-4.187-7.948a4.278 4.278 0 0 0-1.333 1.262 3.253 3.253 0 0 0-.526 1.583c-.023.563.112 1.122.405 1.679.315.598.714 1.036 1.198 1.314a2.813 2.813 0 0 0 1.674.344l1.209 2.295a5.258 5.258 0 0 1-2.195-.017 5.095 5.095 0 0 1-2.066-.937c-.643-.479-1.191-1.149-1.645-2.011Zm4.855-6.315 3.022 5.737c.792-.453 1.274-1.071 1.448-1.855.187-.792.075-1.577-.335-2.356a3.475 3.475 0 0 0-1.646-1.558c-.732-.343-1.561-.332-2.489.032Zm-5.534 101.399c.527-1.002 1.18-1.822 1.96-2.46.786-.617 1.644-.982 2.575-1.097.944-.107 1.928.1 2.951.62l-1.219 2.316c-.842-.425-1.666-.494-2.474-.209-.793.293-1.432.899-1.915 1.817-.417.793-.569 1.539-.457 2.237.119.72.519 1.259 1.201 1.618.417.219.795.329 1.132.329.352.007.716-.095 1.093-.305.37-.196.78-.504 1.232-.924a57.287 57.287 0 0 0 1.666-1.548c.732-.681 1.421-1.198 2.068-1.55.653-.331 1.293-.501 1.919-.509.64-.001 1.273.163 1.899.492.89.469 1.525 1.069 1.904 1.801.385.753.541 1.572.466 2.456-.06.892-.321 1.776-.782 2.653-.468.89-1.049 1.606-1.742 2.147a4.403 4.403 0 0 1-2.309.997c-.846.123-1.718-.042-2.616-.497l1.24-2.358c.64.337 1.3.382 1.98.136.673-.233 1.21-.731 1.613-1.497.358-.646.483-1.29.377-1.932-.106-.642-.494-1.139-1.161-1.49-.473-.249-.925-.318-1.357-.207-.431.11-.897.371-1.397.783-.501.412-1.099.941-1.794 1.588-.438.426-.896.825-1.375 1.195a6.11 6.11 0 0 1-1.537.896 3.807 3.807 0 0 1-1.672.293c-.598-.012-1.237-.198-1.919-.556-.89-.468-1.528-1.097-1.913-1.885-.378-.767-.532-1.621-.464-2.562.061-.927.337-1.856.827-2.788Zm-5.806 9.726c.629-.96 1.402-1.665 2.319-2.117a5.522 5.522 0 0 1 2.952-.545c1.043.101 2.063.48 3.062 1.135 1.039.681 1.805 1.475 2.3 2.383.496.908.712 1.867.65 2.879-.058 1.034-.406 2.037-1.044 3.01-.621.946-1.374 1.636-2.26 2.07a5.172 5.172 0 0 1-2.763.557c-.977-.058-1.919-.385-2.826-.98a6.004 6.004 0 0 1-.46-.33 4.132 4.132 0 0 1-.447-.35l4.927-7.511a4.276 4.276 0 0 0-1.75-.556 3.26 3.26 0 0 0-1.639.306c-.504.252-.928.641-1.273 1.167-.371.565-.561 1.127-.57 1.685-.004.58.166 1.124.509 1.631l-1.422 2.169a5.251 5.251 0 0 1-1.048-1.928 5.115 5.115 0 0 1-.18-2.261c.107-.795.428-1.599.963-2.414Zm7.876 1.19-3.556 5.422c.779.474 1.554.597 2.324.369.783-.22 1.416-.698 1.899-1.434.431-.657.62-1.388.566-2.195-.054-.806-.465-1.526-1.233-2.162Zm-11.039 4.024 13.212 9.893-1.498 2-13.212-9.892 1.498-2.001Zm-5.936 6.707c.739-.858 1.59-1.474 2.554-1.847a5.624 5.624 0 0 1 3.026-.227c1.041.212 2.038.728 2.992 1.548.953.82 1.601 1.73 1.943 2.73a5.617 5.617 0 0 1 .161 3.031c-.224 1.031-.705 1.975-1.443 2.833-.738.858-1.589 1.474-2.553 1.847a5.63 5.63 0 0 1-3.021.294c-1.05-.178-2.058-.682-3.023-1.512-.905-.78-1.535-1.674-1.89-2.684a5.706 5.706 0 0 1-.247-3.075c.212-1.041.712-2.021 1.501-2.938Zm1.629 1.433c-.451.524-.719 1.101-.806 1.732a3.63 3.63 0 0 0 .227 1.906c.259.638.681 1.208 1.265 1.711.596.512 1.217.839 1.863.98.647.163 1.264.145 1.851-.055.599-.19 1.129-.553 1.591-1.089.481-.56.766-1.156.852-1.786a3.424 3.424 0 0 0-.288-1.835c-.267-.581-.686-1.119-1.258-1.611-.655-.563-1.312-.921-1.97-1.072-.668-.14-1.289-.104-1.864.106a3.47 3.47 0 0 0-1.463 1.013Zm-14.517 11.105c1.197-1.018 2.473-1.629 3.827-1.833 1.343-.193 2.672-.013 3.988.539 1.316.552 2.514 1.462 3.594 2.731 1.049 1.233 1.752 2.544 2.109 3.933a7.31 7.31 0 0 1-.099 4.141c-.445 1.369-1.326 2.614-2.643 3.734-1.448 1.233-2.941 1.905-4.477 2.015-1.549.121-2.986-.307-4.313-1.284l2.155-1.833c.75.517 1.575.723 2.476.617.899-.084 1.791-.503 2.677-1.256.91-.775 1.509-1.635 1.797-2.582.288-.947.288-1.917 0-2.911-.288-.993-.84-1.969-1.655-2.926-.805-.946-1.674-1.64-2.609-2.084-.934-.443-1.875-.602-2.821-.478-.949.147-1.842.577-2.68 1.29-1.209 1.029-1.845 2.138-1.907 3.326-.064 1.21.322 2.44 1.158 3.689l4.274-3.637 1.329 1.563-6.23 5.302-5.746-6.751 1.759-1.498 1.733 1.745c-.139-1.037-.045-2.005.284-2.904.329-.899 1.002-1.782 2.02-2.648Zm-6.23 5.543 9.178 13.717-2.077 1.39-3.606-5.389a3.774 3.774 0 0 1-.572 2.113 4.975 4.975 0 0 1-1.553 1.664c-1.124.752-2.272 1-3.446.745-1.177-.234-2.238-1.056-3.182-2.467l-3.815-5.703 2.057-1.376 3.645 5.448c.586.875 1.232 1.417 1.939 1.625.715.221 1.458.074 2.229-.442.784-.525 1.238-1.216 1.363-2.076.121-.837-.129-1.719-.75-2.647l-3.487-5.213 2.077-1.389Zm-14.542 8.613c.998-.533 2.014-.798 3.048-.798a5.634 5.634 0 0 1 2.903.884c.894.574 1.637 1.416 2.229 2.525.592 1.11.867 2.193.824 3.249a5.617 5.617 0 0 1-.947 2.883c-.582.881-1.372 1.587-2.37 2.12-.999.532-2.015.798-3.049.797a5.623 5.623 0 0 1-2.922-.819c-.915-.546-1.672-1.38-2.271-2.504-.562-1.054-.826-2.116-.791-3.185a5.714 5.714 0 0 1 .882-2.956c.575-.894 1.396-1.626 2.464-2.196Zm1 1.925c-.611.326-1.07.767-1.379 1.323a3.63 3.63 0 0 0-.478 1.859c.011.689.198 1.373.56 2.053.37.693.83 1.223 1.382 1.588.544.386 1.126.592 1.746.618.627.04 1.252-.107 1.876-.44.652-.347 1.133-.799 1.441-1.356a3.422 3.422 0 0 0 .396-1.814c-.038-.639-.235-1.292-.59-1.957-.407-.763-.89-1.334-1.448-1.713-.572-.372-1.165-.564-1.777-.576a3.476 3.476 0 0 0-1.729.415Zm-11.011 2.839c.84-.354 1.669-.533 2.486-.537.824.011 1.569.2 2.235.567.667.367 1.192.905 1.576 1.613l-2.324.98a2.247 2.247 0 0 0-1.345-.942c-.575-.15-1.188-.087-1.84.187-.579.245-.998.567-1.256.966-.252.413-.29.83-.112 1.25.152.362.395.592.726.691.318.105.689.136 1.114.093.411-.037.852-.103 1.324-.2a15.623 15.623 0 0 1 2.137-.211c.677-.012 1.282.108 1.815.361.534.252.944.719 1.231 1.4.281.666.349 1.311.203 1.936-.155.645-.488 1.229-1.001 1.753-.513.523-1.16.95-1.942 1.28-1.174.495-2.276.61-3.309.347-1.027-.25-1.822-.921-2.385-2.014l2.216-.935c.272.483.654.782 1.147.898.478.123 1.006.062 1.586-.183.536-.226.924-.518 1.166-.875.247-.344.283-.725.105-1.145a1.026 1.026 0 0 0-.659-.592 3.284 3.284 0 0 0-1.092-.103c-.426.043-.863.1-1.311.169-.806.153-1.547.235-2.224.248-.677.013-1.278-.118-1.803-.391-.525-.273-.95-.776-1.276-1.509-.281-.666-.341-1.332-.178-1.998.154-.645.492-1.24 1.013-1.784.507-.538 1.166-.978 1.977-1.32Zm-8.713 3.587c1.099-.383 2.038-.41 2.818-.083.78.328 1.382 1.1 1.806 2.318l1.962 5.633 1.67-.582.69 1.982-1.67.582.931 2.672-2.36.822-.931-2.672-2.806.977-.69-1.982 2.806-.977-1.963-5.633c-.196-.564-.454-.899-.774-1.004-.319-.105-.746-.065-1.281.122l-1.247.434-.698-2.004 1.737-.605Zm-6.73 1.587c.881-.234 1.727-.295 2.537-.184.814.126 1.525.418 2.134.874.608.457 1.053 1.063 1.334 1.818l-2.439.645a2.24 2.24 0 0 0-1.199-1.121c-.548-.229-1.164-.253-1.848-.072-.608.161-1.068.421-1.379.779-.308.374-.403.782-.287 1.223.101.379.309.642.623.786.3.148.663.231 1.09.248.412.021.858.017 1.338-.013.744-.017 1.459.013 2.146.091.673.082 1.255.286 1.747.611.493.325.834.844 1.023 1.559.185.699.161 1.347-.071 1.945-.243.617-.655 1.149-1.236 1.596-.581.446-1.282.778-2.103.995-1.231.326-2.339.286-3.324-.12-.982-.391-1.675-1.167-2.08-2.328l2.325-.615c.202.516.538.866 1.01 1.05.456.188.988.202 1.596.041.562-.149.988-.384 1.277-.704.294-.305.382-.678.265-1.119-.08-.304-.27-.53-.57-.678a3.285 3.285 0 0 0-1.067-.255 24.953 24.953 0 0 0-1.321-.016c-.819.038-1.565.016-2.237-.066-.673-.083-1.249-.296-1.731-.64-.481-.344-.832-.902-1.052-1.673-.185-.699-.15-1.366.104-2.003.243-.617.661-1.159 1.253-1.624.577-.462 1.291-.805 2.142-1.03Zm-5.019 1.508 2.849 16.258-5.69.997c-1.146.2-2.168.196-3.067-.014-.898-.209-1.642-.63-2.231-1.26-.602-.613-.994-1.438-1.176-2.475-.182-1.038-.095-1.955.26-2.751.355-.796.928-1.447 1.717-1.953.776-.487 1.722-.828 2.837-1.023l3.228-.566-1.189-6.782 2.462-.431Zm-.907 9.303-3.182.558c-1.161.203-1.941.579-2.34 1.128-.395.564-.521 1.256-.378 2.077.147.836.501 1.444 1.062 1.825.564.396 1.427.492 2.588.288l3.182-.557-.932-5.319Zm-13.587-7.494a5.257 5.257 0 0 1 2.1.233 3.63 3.63 0 0 1 1.602 1.101c.419.503.659 1.13.72 1.882.071.893-.091 1.624-.486 2.192-.411.585-.982 1.033-1.714 1.344a7.65 7.65 0 0 1-2.482.602l-2.962.238c.055.674.208 1.206.46 1.596.253.405.576.687.967.844.392.174.839.24 1.34.2.659-.053 1.226-.256 1.702-.61.462-.337.729-.839.801-1.507l2.515-.203c-.01.853-.234 1.596-.672 2.231a4.854 4.854 0 0 1-1.794 1.516 6.445 6.445 0 0 1-2.407.667c-1.128.09-2.077-.046-2.848-.41-.785-.347-1.387-.874-1.806-1.581-.436-.707-.691-1.53-.767-2.47l-.287-3.572c-.052-.453-.174-.783-.364-.988-.204-.189-.542-.28-1.015-.273l-.172-2.139c.627-.05 1.181-.024 1.662.079.466.105.859.286 1.179.544.322.274.587.631.796 1.071.326-.657.831-1.234 1.517-1.73.685-.497 1.49-.783 2.415-.857Zm-.423 2.092c-.643.052-1.194.254-1.655.606a3.4 3.4 0 0 0-1.026 1.36 3.792 3.792 0 0 0-.261 1.748l.003.047 2.774-.223a4.96 4.96 0 0 0 1.279-.269c.383-.141.689-.355.918-.641.215-.27.304-.632.268-1.086-.048-.596-.295-1.017-.741-1.265-.444-.233-.964-.325-1.559-.277Zm-7.708-6.53-2.644 5.683 4.781 11.219-2.758-.024-3.367-8.566-3.66 8.503-2.617-.023 7.625-16.815 2.64.023Zm-19.133 3.584c1.15.172 2.104.593 2.862 1.263a5.697 5.697 0 0 1 1.581 2.502c.297.982.361 2.041.191 3.175-.167 1.12-.536 2.098-1.107 2.934a5.338 5.338 0 0 1-2.237 1.882c-.92.419-1.956.542-3.107.369-.855-.128-1.605-.423-2.251-.885a4.384 4.384 0 0 1-1.482-1.724l-.971 6.482-2.495-.374 2.445-16.323 2.401.36-.175 1.81c.464-.551 1.075-.968 1.832-1.252.758-.284 1.596-.357 2.513-.219Zm-.815 2.095c-.73-.11-1.386-.033-1.965.23a3.37 3.37 0 0 0-1.423 1.217c-.368.549-.607 1.189-.716 1.92-.126.839-.069 1.571.172 2.195a3.333 3.333 0 0 0 1.083 1.521 3.47 3.47 0 0 0 1.702.732c.669.1 1.292.027 1.869-.221a3.56 3.56 0 0 0 1.462-1.163c.382-.531.632-1.193.751-1.986.116-.777.063-1.485-.159-2.122a3.522 3.522 0 0 0-1.054-1.564 3.376 3.376 0 0 0-1.722-.759Zm-11.564-4.597c1.111.284 2.03.786 2.754 1.506a5.515 5.515 0 0 1 1.474 2.615c.243 1.019.217 2.108-.079 3.265-.307 1.204-.809 2.187-1.507 2.949a5.227 5.227 0 0 1-2.512 1.549c-.997.281-2.059.278-3.186-.01-1.096-.28-1.994-.768-2.692-1.466a5.16 5.16 0 0 1-1.423-2.431c-.262-.943-.259-1.94.009-2.991.054-.214.109-.394.163-.543.039-.152.101-.331.185-.536l8.705 2.221a4.287 4.287 0 0 0-.043-1.835 3.246 3.246 0 0 0-.822-1.451c-.402-.395-.908-.67-1.517-.826-.655-.167-1.248-.164-1.778.009a2.818 2.818 0 0 0-1.378 1.011l-2.513-.642a5.253 5.253 0 0 1 1.484-1.616 5.091 5.091 0 0 1 2.08-.905c.786-.156 1.651-.114 2.596.127Zm1.431 7.836-6.283-1.604c-.195.892-.06 1.664.406 2.318.462.67 1.119 1.114 1.972 1.331a3.475 3.475 0 0 0 2.26-.177c.745-.313 1.293-.936 1.645-1.868Zm-24.471-16.449.895 2.102a8.361 8.361 0 0 1 2.609-.165 8.644 8.644 0 0 1 2.682.687c1.083.465 2.007 1.083 2.771 1.855a8.184 8.184 0 0 1 1.731 2.665 8.26 8.26 0 0 1 .545 3.158c-.039 1.129-.306 2.271-.801 3.427-.502 1.171-1.144 2.152-1.929 2.945-.804.801-1.695 1.403-2.671 1.805a7.88 7.88 0 0 1-3.115.564c-1.085-.02-2.17-.263-3.254-.727-1.098-.47-2.029-1.092-2.793-1.863a7.38 7.38 0 0 1-1.728-2.613 7.754 7.754 0 0 1-.536-3.18c.019-1.121.282-2.273.789-3.458.415-.968.929-1.808 1.542-2.521a7.61 7.61 0 0 1 2.065-1.706l-.905-2.08 2.103-.895Zm8.069 12.717c.514-1.199.726-2.331.635-3.396-.091-1.065-.435-1.999-1.032-2.802-.596-.803-1.386-1.415-2.368-1.836a6.943 6.943 0 0 0-1.805-.516 5.116 5.116 0 0 0-1.728.08l1.397 3.266-2.124.886-1.307-3.176c-.431.328-.83.739-1.195 1.232a8.752 8.752 0 0 0-.984 1.759c-.526 1.228-.744 2.375-.653 3.44.091 1.065.438 1.991 1.041 2.78.602.788 1.402 1.396 2.399 1.823.983.421 1.97.571 2.963.449.987-.108 1.897-.496 2.731-1.165.834-.669 1.51-1.61 2.03-2.824Zm-13.744-15.841c.831.477 1.449 1.058 1.853 1.744.397.698.571 1.469.522 2.311-.056.856-.351 1.747-.883 2.674l-3.428 5.971-2.147-1.233 3.264-5.684c.516-.9.715-1.719.596-2.459-.133-.747-.602-1.351-1.406-1.813-.832-.477-1.643-.58-2.433-.309-.798.285-1.475.911-2.031 1.879l-3.123 5.439-2.167-1.244 5.823-10.142 2.086 1.197-.828 1.537a4.12 4.12 0 0 1 2.142-.51 4.632 4.632 0 0 1 2.16.642Zm-9.027-5.702a5.256 5.256 0 0 1 1.46 1.528c.349.595.522 1.219.521 1.874-.002.654-.222 1.288-.658 1.904-.519.73-1.112 1.186-1.781 1.367-.69.185-1.415.161-2.176-.07a7.654 7.654 0 0 1-2.29-1.134l-2.422-1.72c-.391.551-.616 1.057-.673 1.518-.066.473 0 .896.199 1.268.189.385.489.723.899 1.015.538.382 1.103.59 1.695.625.571.039 1.098-.175 1.583-.64l2.057 1.46c-.555.647-1.205 1.073-1.948 1.278a4.846 4.846 0 0 1-2.349.009 6.406 6.406 0 0 1-2.272-1.035c-.923-.655-1.563-1.37-1.92-2.143-.378-.77-.501-1.561-.368-2.373.12-.821.453-1.616.999-2.385l2.075-2.922c.251-.381.369-.711.356-.991-.036-.276-.237-.563-.603-.861l1.242-1.75c.513.364.921.74 1.223 1.129.29.379.475.77.554 1.174.071.416.045.86-.078 1.332.672-.294 1.43-.411 2.274-.352.844.06 1.645.358 2.401.895Zm-1.668 1.332c-.526-.373-1.078-.573-1.657-.599a3.393 3.393 0 0 0-1.66.383 3.792 3.792 0 0 0-1.324 1.172l-.027.038 2.269 1.611c.371.264.756.469 1.153.616.384.138.756.171 1.116.098.337-.068.638-.288.902-.66.346-.487.428-.969.245-1.445-.191-.464-.53-.869-1.017-1.214Zm-4.82-5.678-10.421 12.799-1.939-1.578 10.422-12.799 1.938 1.578Zm-12.974 7.049c.345.298.538.675.582 1.128a1.68 1.68 0 0 1-.432 1.218 1.57 1.57 0 0 1-1.114.563 1.649 1.649 0 0 1-1.199-.416c-.356-.309-.55-.686-.582-1.129a1.534 1.534 0 0 1 .384-1.197 1.637 1.637 0 0 1 1.162-.584c.443-.031.843.107 1.199.417Zm9.953-9.564-7.664 8.833-1.888-1.638 7.665-8.833 1.887 1.638Zm-6.114-6.265c.823.823 1.339 1.729 1.55 2.718a5.685 5.685 0 0 1-.218 2.951c-.345.967-.923 1.856-1.734 2.667-.801.8-1.679 1.367-2.635 1.7-.979.333-1.951.394-2.918.182-.989-.211-1.895-.728-2.717-1.551-.611-.612-1.039-1.295-1.283-2.051a4.368 4.368 0 0 1-.166-2.268l-4.637 4.634-1.783-1.785 11.674-11.667 1.717 1.718-1.218 1.35c.701-.166 1.44-.138 2.218.084.778.223 1.495.662 2.15 1.318Zm-1.901 1.2c-.522-.523-1.094-.851-1.717-.984a3.355 3.355 0 0 0-1.867.132c-.623.222-1.195.595-1.718 1.117-.6.6-.989 1.222-1.167 1.867a3.326 3.326 0 0 0-.034 1.867c.155.6.466 1.134.933 1.601.478.478 1.022.79 1.633.934a3.559 3.559 0 0 0 1.868-.066c.622-.2 1.217-.583 1.784-1.15.556-.555.934-1.155 1.134-1.8a3.508 3.508 0 0 0 .084-1.884 3.38 3.38 0 0 0-.933-1.634Zm-5.516-9.281a5.254 5.254 0 0 1 1.002 1.86c.179.666.181 1.314.006 1.945-.176.63-.555 1.184-1.139 1.661-.694.567-1.387.849-2.08.847-.714-.005-1.407-.22-2.08-.645a7.651 7.651 0 0 1-1.907-1.7l-1.88-2.301c-.523.428-.873.857-1.05 1.286-.19.439-.238.864-.146 1.275.081.422.28.827.599 1.217.418.511.907.862 1.469 1.052.54.189 1.105.123 1.696-.198l1.596 1.954c-.707.476-1.446.715-2.217.715a4.84 4.84 0 0 1-2.267-.613 6.427 6.427 0 0 1-1.917-1.601c-.716-.876-1.144-1.735-1.283-2.575-.16-.843-.07-1.638.274-2.386.333-.759.865-1.438 1.595-2.034l2.775-2.268c.344-.301.546-.588.607-.861.038-.275-.079-.605-.353-.991l1.661-1.357c.398.487.691.957.88 1.412.179.443.254.869.224 1.279a3.173 3.173 0 0 1-.429 1.264c.725-.106 1.487-.018 2.286.264.798.281 1.491.781 2.078 1.499Zm-1.962.842c-.408-.5-.888-.838-1.439-1.017a3.39 3.39 0 0 0-1.702-.07 3.796 3.796 0 0 0-1.587.779l-.036.029 1.76 2.155c.289.353.605.653.949.899.333.235.683.365 1.05.391.343.023.692-.109 1.045-.398.462-.378.669-.82.62-1.328-.062-.498-.282-.978-.66-1.44Zm-5.413-10.844c.641.971.966 1.962.974 2.973a5.69 5.69 0 0 1-.804 2.848c-.532.878-1.276 1.633-2.234 2.265-.945.624-1.919 1.003-2.922 1.138-1.025.13-1.99-.005-2.895-.406-.927-.405-1.71-1.093-2.352-2.064-.476-.721-.758-1.477-.846-2.266a4.375 4.375 0 0 1 .292-2.255l-5.47 3.611-1.39-2.106 13.774-9.092 1.338 2.027-1.463 1.078c.72-.022 1.438.153 2.155.527.718.374 1.332.948 1.843 1.722Zm-2.103.794c-.407-.616-.902-1.052-1.485-1.308a3.363 3.363 0 0 0-1.856-.244c-.654.093-1.29.343-1.906.75-.709.468-1.215 1-1.518 1.596a3.336 3.336 0 0 0-.407 1.822 3.47 3.47 0 0 0 .593 1.756 3.39 3.39 0 0 0 1.413 1.242c.57.264 1.185.367 1.843.309.65-.071 1.31-.327 1.979-.769.656-.433 1.146-.945 1.472-1.537a3.52 3.52 0 0 0 .46-1.829 3.394 3.394 0 0 0-.588-1.788Zm-4.337-11.685c.535 1.015.778 2.033.729 3.053a5.513 5.513 0 0 1-.952 2.847c-.594.863-1.42 1.573-2.476 2.13-1.099.579-2.165.865-3.199.859a5.24 5.24 0 0 1-2.833-.826c-.877-.551-1.586-1.341-2.128-2.371-.528-1.001-.767-1.994-.717-2.98a5.163 5.163 0 0 1 .85-2.686c.524-.827 1.266-1.493 2.226-1.998.194-.103.365-.184.511-.243.14-.074.314-.148.523-.222l4.186 7.948a4.282 4.282 0 0 0 1.334-1.262 3.263 3.263 0 0 0 .526-1.583c.023-.563-.112-1.122-.405-1.679-.315-.598-.714-1.036-1.198-1.314a2.813 2.813 0 0 0-1.674-.344l-1.209-2.295a5.254 5.254 0 0 1 2.194.017 5.106 5.106 0 0 1 2.066.937c.643.479 1.192 1.149 1.646 2.012Zm-4.855 6.314-3.022-5.737c-.792.453-1.275 1.071-1.448 1.856-.187.791-.076 1.576.335 2.355a3.476 3.476 0 0 0 1.646 1.558c.732.343 1.561.332 2.489-.032Z"/></svg>